<svg width="128" height="27" viewBox="0 0 128 27" fill="none" xmlns="http://www.w3.org/2000/svg">
<rect x="0.5" y="0.5" width="127" height="26" rx="3.5" fill="#FF3D00" fill-opacity="0.1"/>
<circle cx="22" cy="13.5" r="6" fill="#FF3D00"/>
<path d="M44.5029 8.04688V14.6982C44.5029 15.7555 44.1634 16.5941 43.4844 17.2139C42.8099 17.8291 41.9098 18.1367 40.7842 18.1367C39.6449 18.1367 38.7402 17.8337 38.0703 17.2275C37.4004 16.6169 37.0654 15.7715 37.0654 14.6914V8.04688H38.7881V14.7051C38.7881 15.3704 38.9567 15.8786 39.2939 16.2295C39.6312 16.5804 40.1279 16.7559 40.7842 16.7559C42.1149 16.7559 42.7803 16.054 42.7803 14.6504V8.04688H44.5029ZM47.7363 10.6035L47.7842 11.458C48.3311 10.7972 49.0488 10.4668 49.9375 10.4668C51.4779 10.4668 52.2617 11.3486 52.2891 13.1123V18H50.6279V13.208C50.6279 12.7386 50.5254 12.3923 50.3203 12.1689C50.1198 11.9411 49.7894 11.8271 49.3291 11.8271C48.6592 11.8271 48.1602 12.1302 47.832 12.7363V18H46.1709V10.6035H47.7363ZM57.0264 16.8105C57.4411 16.8105 57.7852 16.6898 58.0586 16.4482C58.332 16.2067 58.4779 15.9082 58.4961 15.5527H60.0615C60.0433 16.013 59.8997 16.4437 59.6309 16.8447C59.362 17.2412 58.9974 17.5557 58.5371 17.7881C58.0768 18.0205 57.5801 18.1367 57.0469 18.1367C56.0124 18.1367 55.1921 17.8018 54.5859 17.1318C53.9798 16.4619 53.6768 15.5368 53.6768 14.3564V14.1855C53.6768 13.0599 53.9775 12.1598 54.5791 11.4854C55.1807 10.8063 56.001 10.4668 57.04 10.4668C57.9196 10.4668 58.6351 10.7243 59.1865 11.2393C59.7425 11.7497 60.0342 12.4219 60.0615 13.2559H58.4961C58.4779 12.832 58.332 12.4834 58.0586 12.21C57.7897 11.9365 57.4456 11.7998 57.0264 11.7998C56.4886 11.7998 56.0739 11.9958 55.7822 12.3877C55.4906 12.7751 55.3424 13.3652 55.3379 14.1582V14.4248C55.3379 15.2269 55.4814 15.8262 55.7686 16.2227C56.0602 16.6146 56.4795 16.8105 57.0264 16.8105ZM61.0049 14.2334C61.0049 13.5088 61.1484 12.8571 61.4355 12.2783C61.7227 11.695 62.126 11.2484 62.6455 10.9385C63.165 10.624 63.762 10.4668 64.4365 10.4668C65.4346 10.4668 66.2435 10.7881 66.8633 11.4307C67.4876 12.0732 67.8249 12.9255 67.875 13.9873L67.8818 14.377C67.8818 15.1061 67.7406 15.7578 67.458 16.332C67.18 16.9062 66.779 17.3506 66.2549 17.665C65.7354 17.9795 65.1338 18.1367 64.4502 18.1367C63.4066 18.1367 62.5703 17.7904 61.9414 17.0977C61.3171 16.4004 61.0049 15.473 61.0049 14.3154V14.2334ZM62.666 14.377C62.666 15.138 62.8232 15.735 63.1377 16.168C63.4521 16.5964 63.8896 16.8105 64.4502 16.8105C65.0107 16.8105 65.446 16.5918 65.7559 16.1543C66.0703 15.7168 66.2275 15.0765 66.2275 14.2334C66.2275 13.486 66.0658 12.8936 65.7422 12.4561C65.4232 12.0186 64.988 11.7998 64.4365 11.7998C63.8942 11.7998 63.4635 12.0163 63.1445 12.4492C62.8255 12.8776 62.666 13.5202 62.666 14.377ZM70.8486 10.6035L70.8965 11.376C71.416 10.7699 72.127 10.4668 73.0293 10.4668C74.0182 10.4668 74.695 10.8451 75.0596 11.6016C75.5973 10.8451 76.3538 10.4668 77.3291 10.4668C78.1449 10.4668 78.751 10.6924 79.1475 11.1436C79.5485 11.5947 79.7536 12.2601 79.7627 13.1396V18H78.1016V13.1875C78.1016 12.7181 77.999 12.374 77.7939 12.1553C77.5889 11.9365 77.2493 11.8271 76.7754 11.8271C76.3971 11.8271 76.0872 11.9297 75.8457 12.1348C75.6087 12.3353 75.4424 12.5996 75.3467 12.9277L75.3535 18H73.6924V13.1328C73.6696 12.2624 73.2253 11.8271 72.3594 11.8271C71.694 11.8271 71.2223 12.0983 70.9443 12.6406V18H69.2832V10.6035H70.8486ZM87.9453 14.377C87.9453 15.5208 87.6855 16.4346 87.166 17.1182C86.6465 17.7972 85.9492 18.1367 85.0742 18.1367C84.263 18.1367 83.6136 17.8701 83.126 17.3369V20.8438H81.4648V10.6035H82.9961L83.0645 11.3555C83.5521 10.763 84.2152 10.4668 85.0537 10.4668C85.9561 10.4668 86.6624 10.804 87.1729 11.4785C87.6878 12.1484 87.9453 13.0804 87.9453 14.2744V14.377ZM86.291 14.2334C86.291 13.4951 86.1429 12.9095 85.8467 12.4766C85.555 12.0436 85.1357 11.8271 84.5889 11.8271C83.9098 11.8271 83.4222 12.1074 83.126 12.668V15.9492C83.4268 16.5234 83.9189 16.8105 84.6025 16.8105C85.1312 16.8105 85.5436 16.5986 85.8398 16.1748C86.1406 15.7464 86.291 15.0993 86.291 14.2334ZM91.124 18H89.4629V7.5H91.124V18ZM96.1963 18.1367C95.1436 18.1367 94.2891 17.8063 93.6328 17.1455C92.9811 16.4801 92.6553 15.596 92.6553 14.4932V14.2881C92.6553 13.5498 92.7965 12.8913 93.0791 12.3125C93.3662 11.7292 93.7673 11.2757 94.2822 10.9521C94.7972 10.6286 95.3714 10.4668 96.0049 10.4668C97.012 10.4668 97.7891 10.7881 98.3359 11.4307C98.8874 12.0732 99.1631 12.9824 99.1631 14.1582V14.8281H94.3301C94.3802 15.4388 94.583 15.9219 94.9385 16.2773C95.2985 16.6328 95.7497 16.8105 96.292 16.8105C97.0531 16.8105 97.6729 16.5029 98.1514 15.8877L99.0469 16.7422C98.7507 17.1842 98.3542 17.5283 97.8574 17.7744C97.3652 18.016 96.8115 18.1367 96.1963 18.1367ZM95.998 11.7998C95.5423 11.7998 95.1732 11.9593 94.8906 12.2783C94.6126 12.5973 94.4349 13.0417 94.3574 13.6113H97.5225V13.4883C97.486 12.9323 97.3379 12.513 97.0781 12.2305C96.8184 11.9434 96.4583 11.7998 95.998 11.7998ZM102.54 8.80566V10.6035H103.846V11.834H102.54V15.9629C102.54 16.2454 102.595 16.4505 102.704 16.5781C102.818 16.7012 103.019 16.7627 103.306 16.7627C103.497 16.7627 103.691 16.7399 103.887 16.6943V17.9795C103.508 18.0843 103.144 18.1367 102.793 18.1367C101.517 18.1367 100.879 17.4326 100.879 16.0244V11.834H99.6621V10.6035H100.879V8.80566H102.54ZM108.378 18.1367C107.325 18.1367 106.471 17.8063 105.814 17.1455C105.163 16.4801 104.837 15.596 104.837 14.4932V14.2881C104.837 13.5498 104.978 12.8913 105.261 12.3125C105.548 11.7292 105.949 11.2757 106.464 10.9521C106.979 10.6286 107.553 10.4668 108.187 10.4668C109.194 10.4668 109.971 10.7881 110.518 11.4307C111.069 12.0732 111.345 12.9824 111.345 14.1582V14.8281H106.512C106.562 15.4388 106.765 15.9219 107.12 16.2773C107.48 16.6328 107.931 16.8105 108.474 16.8105C109.235 16.8105 109.854 16.5029 110.333 15.8877L111.229 16.7422C110.932 17.1842 110.536 17.5283 110.039 17.7744C109.547 18.016 108.993 18.1367 108.378 18.1367ZM108.18 11.7998C107.724 11.7998 107.355 11.9593 107.072 12.2783C106.794 12.5973 106.617 13.0417 106.539 13.6113H109.704V13.4883C109.668 12.9323 109.52 12.513 109.26 12.2305C109 11.9434 108.64 11.7998 108.18 11.7998Z" fill="#FF3D00"/>
<rect x="0.5" y="0.5" width="127" height="26" rx="3.5" stroke="#FF3D00"/>
</svg>
